<svg width="121" height="120" viewBox="0 0 121 120" fill="none" xmlns="http://www.w3.org/2000/svg">
<g clip-path="url(#clip0_28_5351)">
<rect x="0.5" width="120" height="120" rx="60" fill="#CAEEA3"/>
<path d="M33.1261 56.7692C32.8114 57.9079 32.5769 61.608 33.8125 64.6442" stroke="black" stroke-width="0.9375" stroke-linecap="round"/>
<path d="M32.125 65.3883C35.0573 64.3375 40.6413 63.0517 40.6413 66.6865V67.3174C40.6413 67.7433 41.1278 67.9845 41.4643 67.7237C46.1718 64.0764 55.75 56.7692 59.125 51.2379" stroke="black" stroke-width="0.9375" stroke-linecap="round"/>
<path d="M45.12 37.2692C48.0006 39.5371 52.4715 44.4324 48.1259 46.4238C47.8711 46.5405 47.7305 46.8228 47.8031 47.0921C48.6581 50.2582 48.5229 56.796 41.8901 61.2234C41.7914 61.2892 41.7154 61.3871 41.6795 61.4996L40.375 65.5817" stroke="black" stroke-width="0.9375" stroke-linecap="round"/>
<path d="M42.2688 53.9567C42.1665 54.4067 42.4323 55.3367 44.3125 55.4567" stroke="black" stroke-width="0.9375" stroke-linecap="round"/>
<path d="M47.3125 42.1442C47.3125 43.1302 47.0143 43.9973 46.5635 44.603C46.1128 45.2084 45.5419 45.5192 44.9688 45.5192C44.3956 45.5192 43.8247 45.2084 43.374 44.603C42.9232 43.9973 42.625 43.1302 42.625 42.1442C42.625 41.1582 42.9232 40.2911 43.374 39.6854C43.8247 39.08 44.3956 38.7692 44.9688 38.7692C45.5419 38.7692 46.1128 39.08 46.5635 39.6854C47.0143 40.2911 47.3125 41.1582 47.3125 42.1442Z" stroke="black" stroke-width="0.9375" stroke-linecap="round"/>
<path d="M36.4375 45.1442L42.25 43.0817" stroke="black" stroke-width="0.9375" stroke-linecap="round"/>
<path d="M40.9375 41.2067C41.0855 40.5818 41.6303 39.1441 42.625 38.3942" stroke="black" stroke-width="0.9375" stroke-linecap="round"/>
<path d="M45.25 42.7067C45.6642 42.7067 46 42.4549 46 42.1442C46 41.8335 45.6642 41.5817 45.25 41.5817C44.8358 41.5817 44.5 41.8335 44.5 42.1442C44.5 42.4549 44.8358 42.7067 45.25 42.7067Z" fill="black"/>
<path d="M42.6994 104.207C42.3542 100.521 42.0779 92.387 43.7355 89.3393C45.3931 86.2914 46.9857 81.9317 48.1058 80.168C51.8726 77.9934 60.85 69.6504 66.625 53.6754" stroke="black" stroke-width="0.9375" stroke-linecap="round"/>
<path d="M32.125 65.2067L10.5625 90.5192" stroke="black" stroke-width="0.9375" stroke-linecap="round"/>
<path d="M10.5625 90.5969C12.1611 90.3809 16.3169 90.4857 20.1531 92.6337C24.9485 95.3185 30.0257 100.04 42.625 104.207" stroke="black" stroke-width="0.9375" stroke-linecap="round"/>
<path d="M42.625 104.207L38.3125 107.207" stroke="black" stroke-width="0.9375" stroke-linecap="round"/>
<path d="M10.565 90.5192C10.2729 91.4246 9.98292 93.5364 12.4375 96.1442" stroke="black" stroke-width="0.9375" stroke-linecap="round"/>
<path d="M26.3125 72.1442C22.8232 75.0507 13.9753 81.1825 6.49808 82.4578C4.75352 83.1765 1.75022 85.1953 3.69425 87.5205C5.63832 89.8459 6.9344 92.6774 7.33947 93.8024C7.65102 94.8339 8.42653 96.2719 10.2958 92.9716" stroke="black" stroke-width="0.9375" stroke-linecap="round"/>
<path d="M4.375 88.4567C2.92641 89.3109 -0.451591 90.9431 -2.37484 90.6393C-4.29809 90.3358 -5.58026 91.1456 -5.98094 91.5885C-6.1967 91.9364 -6.3323 92.6513 -5.14877 92.7273C-3.96524 92.8032 -2.55977 92.7588 -2.00501 92.7273" stroke="black" stroke-width="0.9375" stroke-linecap="round"/>
<path d="M-1.62911 95.3942C-2.82077 95.9941 -4.96576 97.5913 -4.01243 99.182C-3.70688 99.4977 -2.41746 99.5228 0.295853 97.0986L2.3125 95.3942" stroke="black" stroke-width="0.9375" stroke-linecap="round"/>
<path d="M2.41339 95.4303L0.354371 97.1502C-0.238388 98.711 -1.14309 102.501 1.2903 100.399C3.06852 98.5836 2.69415 97.0358 3.4429 96.5769C4.19161 96.1183 5.87626 94.3475 6.625 93.5192" stroke="black" stroke-width="0.9375" stroke-linecap="round"/>
<path d="M2.50172 92.3942C2.25229 93.166 2.05273 94.9592 3.25 95.9567" stroke="black" stroke-width="0.9375" stroke-linecap="round"/>
<path d="M25.1875 155.582C26.3669 155.269 28.7444 153.688 28.8188 149.863C28.8935 146.038 30.4639 139.457 31.2397 136.644L38.875 102.894" stroke="black" stroke-width="0.9375" stroke-linecap="round"/>
<path d="M41.6875 48.5192C41.8946 48.5192 42.0625 48.3933 42.0625 48.2379C42.0625 48.0826 41.8946 47.9567 41.6875 47.9567C41.4804 47.9567 41.3125 48.0826 41.3125 48.2379C41.3125 48.3933 41.4804 48.5192 41.6875 48.5192Z" fill="black"/>
<path d="M42.9063 49.6442C43.0616 49.6442 43.1875 49.5602 43.1875 49.4567C43.1875 49.3531 43.0616 49.2692 42.9063 49.2692C42.7509 49.2692 42.625 49.3531 42.625 49.4567C42.625 49.5602 42.7509 49.6442 42.9063 49.6442Z" fill="black"/>
<path d="M40.1875 50.3942C40.2911 50.3942 40.375 50.2263 40.375 50.0192C40.375 49.8121 40.2911 49.6442 40.1875 49.6442C40.0839 49.6442 40 49.8121 40 50.0192C40 50.2263 40.0839 50.3942 40.1875 50.3942Z" fill="black"/>
<path d="M12.4834 45.8323C17.0401 37.3627 23.844 36.2978 26.6766 36.8239C32.5592 27.8156 40.683 24.8438 45.6319 27.5371C49.5912 29.6916 46.3479 35.1214 44.2313 37.567L42.1772 34.5952C40.7578 37.3441 36.6991 36.3287 34.7069 35.7096C36.4187 39.3005 39.1516 48.5814 33.3996 56.9768C27.6478 65.3722 20.4203 65.5206 16.7785 63.1061C13.417 60.7226 7.9266 54.3021 12.4834 45.8323Z" fill="black"/>
<path d="M15.3983 91.0817C14.2251 94.4375 8.72864 101.336 3.81899 110.005C0.545875 115.443 -7.26022 127.586 -12.2996 132.658C-12.9789 133.621 -13.615 135.808 -10.7248 136.852C-8.50153 137.785 -7.50107 139.947 -7.20463 142.259C-6.8341 145.149 -2.10968 147.293 1.03991 145.149C3.55032 143.44 10.7688 131.13 16.2222 124.175C17.6107 122.404 18.8847 120.98 19.9375 120.166" stroke="black" stroke-width="0.9375" stroke-linecap="round"/>
<path d="M60.9368 34.7335C61.5348 34.3897 62.768 34.2647 62.918 36.5147" stroke="black" stroke-width="0.9375" stroke-linecap="round"/>
<path d="M59.7304 40.7335C59.7929 39.8586 59.7304 37.8647 58.9804 36.8897C58.0429 35.671 57.8554 33.3272 59.7304 33.5147C60.3256 33.5743 60.7043 34.0688 60.9368 34.7335C61.2903 35.7439 61.3058 37.1477 61.2304 38.0147" stroke="black" stroke-width="0.9375" stroke-linecap="round"/>
<path d="M58.5518 43.1709C58.4759 42.3272 58.1554 40.3772 57.4804 39.3272C56.6367 38.0147 56.5429 34.6397 58.3242 35.0147" stroke="black" stroke-width="0.9375" stroke-linecap="round"/>
<path d="M59.7305 49.546C59.2617 49.546 58.268 49.096 58.043 47.296C57.818 45.496 57.0117 44.3586 56.6367 44.0147C56.4179 43.4835 56.1867 42.3835 57.0117 42.2335C57.4975 42.1451 58.072 42.616 58.5518 43.171L59.3555 44.296" stroke="black" stroke-width="0.9375" stroke-linecap="round"/>
<path d="M64.0429 41.2022C64.2618 40.7961 64.4742 39.7585 63.5742 38.8585C62.4492 37.7335 62.7304 36.7022 63.3867 36.421C64.0429 36.1397 64.9804 36.3272 65.9179 39.1397C66.8554 41.5772 68.2429 47.7647 66.6679 53.0147" stroke="black" stroke-width="0.9375" stroke-linecap="round"/>
<path d="M68.3256 26.5329L69.7967 23.8585" stroke="black" stroke-width="1.125" stroke-linecap="round"/>
<path d="M55.6054 27.796L58.2304 29.4835" stroke="black" stroke-width="1.125" stroke-linecap="round"/>
<path d="M60.3683 21L62.9363 26.9045" stroke="black" stroke-width="1.125" stroke-linecap="round"/>
<path d="M69.4581 34.6436C69.4581 32.6751 69.916 29.3892 72.297 32.3651C73.7622 34.5041 74.3117 38.7634 73.2128 40.9209" stroke="black" stroke-width="0.9375" stroke-linecap="round"/>
<path d="M64.6045 36.4571C64.2992 35.3721 64.1466 33.3509 65.9781 33.9461L67.9928 38.0381" stroke="black" stroke-width="0.9375" stroke-linecap="round"/>
<path d="M67.9928 38.0381L65.9781 33.9461C65.8255 32.7371 66.6192 30.7842 68.5423 32.3651L69.4581 34.6436L70.3738 36.9221" stroke="black" stroke-width="0.9375" stroke-linecap="round"/>
<path d="M70.4179 43.8272C69.9178 44.9211 69.3867 47.4085 71.2617 48.6085" stroke="black" stroke-width="0.9375" stroke-linecap="round"/>
<path d="M72.7617 42.2334C73.1991 40.9836 74.5242 38.5023 76.3242 38.5773C78.1242 38.6523 76.6992 41.0147 76.3242 41.8584L73.6992 47.0147C73.1367 48.4209 72.2929 50.9522 74.2617 53.8584C76.2304 56.4834 83.0194 63.2334 90.3319 64.3584" stroke="black" stroke-width="0.9375" stroke-linecap="round"/>
<path d="M88.9804 103.546C89.5429 105.546 91.6054 110.183 95.3554 112.733M83.1679 100.265L90.5742 102.421L83.1679 100.265ZM90.1992 106.171C91.0116 103.515 92.0554 96.9272 89.7304 91.8272C86.8242 85.4522 85.0429 77.2959 86.4492 71.8584C87.5742 67.5084 91.6679 66.8584 93.5742 67.0772C96.5742 67.4214 101.749 71.0147 101.449 80.7647C101.074 92.9522 98.2617 103.358 94.2304 111.421L90.1992 106.171Z" stroke="black" stroke-width="0.9375" stroke-linecap="round"/>
<path d="M87.1992 110.577C87.1992 105.796 87.1679 102.421 86.6367 101.108C93.8367 103.808 102.574 103.109 106.043 102.421C106.137 102.64 106.905 104.727 109.23 111.327C112.137 119.577 110.074 147.14 109.23 150.233C108.387 153.327 106.137 153.421 102.855 153.046C100.23 152.746 96.7617 145.546 95.3554 141.983C88.7929 129.702 87.1992 116.187 87.1992 110.577Z" fill="black"/>
<path d="M112.656 85.6462C113.586 87.9276 115.689 93.7275 116.664 98.6775C113.977 100.584 106.418 104.202 97.4179 103.077L83.1679 100.265C82.6054 95.5461 82.5394 83.5275 86.2894 72.8025C86.2894 71.8339 87.2742 69.1209 89.4492 67.9209" stroke="black" stroke-width="0.9375" stroke-linecap="round"/>
<path d="M111.855 93.796C111.815 93.1941 112.926 88.8146 112.656 85.6463C112.505 83.8794 112.312 81.6752 112.071 78.99C111.396 71.49 108.727 65.7401 107.477 63.8025C106.227 61.8651 103.269 60.7022 100.926 61.5459" stroke="black" stroke-width="0.9375" stroke-linecap="round"/>
<path d="M110.056 144.038C110.864 126.454 107.28 109.84 105.293 103.358C110.304 102.682 114.251 100.516 115.699 99.796C117.154 105.282 119.283 119.365 120.159 125.815C122.341 132.879 121.876 143.036 121.371 147.231C121.694 149.786 119.62 150.801 118.542 150.989C112.804 152.867 110.494 147.137 110.056 144.038Z" fill="black"/>
<path d="M64.4179 36.1398C66.0117 38.7023 68.3742 44.9147 66.5742 53.7647C66.7304 55.671 69.5123 61.9746 71.6367 64.8272C74.9179 69.2334 81.7617 74.2022 85.9804 75.6085" stroke="black" stroke-width="0.9375" stroke-linecap="round"/>
<path d="M93.5052 62.8986C92.2649 62.1353 82.9352 62.871 81.1214 51.1352C78.0158 51.1716 76.3272 48.6278 78.6968 47.5391C81.2226 46.2366 81.0332 43.8452 80.5755 42.4361C79.8479 40.5883 79.804 38.6482 79.9607 38.2424" stroke="black" stroke-width="0.9375" stroke-linecap="round"/>
<path d="M83.6979 46.9169C83.2542 46.9221 82.8882 46.3868 82.8805 45.7213C82.8727 45.0559 83.226 44.5122 83.6696 44.507C84.1133 44.5018 84.4793 45.0371 84.487 45.7025C84.4948 46.368 84.1415 46.9117 83.6979 46.9169Z" fill="black"/>
<path d="M85.5912 43.0236C85.0731 42.4699 83.7333 41.6597 82.5192 42.8498" stroke="black" stroke-width="0.9375" stroke-linecap="round"/>
<path d="M89.1105 53.808C88.1584 55.2733 87.1129 55.6894 85.0823 54.7438" stroke="black" stroke-width="0.9375" stroke-linecap="round"/>
<path d="M96.9061 43.5373C97.1266 44.0218 97.3114 45.1217 96.2858 45.6452" stroke="black" stroke-width="0.9375" stroke-linecap="round"/>
<path d="M107.836 38.5621C109.044 45.1725 105.264 50.1486 102.523 53.9739C99.5961 52.3926 94.7989 48.6321 96.6387 48.2261C98.5727 47.7996 100.612 42.5246 98.7344 40.911C96.5308 39.0177 94.5447 41.8823 94.1663 44.0543L92.3916 40.9853C92.8933 38.8386 93.0902 35.0732 89.8628 37.1841C86.6353 39.295 81.9012 38.7421 79.9375 38.2017C76.0656 35.4304 70.05 28.966 76.963 25.2796C82.7127 22.2135 90.1943 26.0899 94.7614 29.573C97.8538 28.7566 106.189 29.5491 107.836 38.5621Z" fill="black"/>
<path d="M102.308 53.5311C100.91 55.2137 100.216 56.6109 100.303 59.5054" stroke="black" stroke-width="0.9375" stroke-linecap="round"/>
</g>
<defs>
<clipPath id="clip0_28_5351">
<rect x="0.5" width="120" height="120" rx="60" fill="white"/>
</clipPath>
</defs>
</svg>
