<svg width="98" height="103" viewBox="0 0 98 103" fill="none" xmlns="http://www.w3.org/2000/svg">
<path d="M63.2923 83.6426C63.6311 81.3069 66.2708 77.71 74.1184 82.0075" stroke="black" stroke-width="0.9375" stroke-linecap="round"/>
<path d="M68.9133 68.0969C69.2199 66.103 69.441 61.9563 67.8724 61.3209C66.3038 60.6855 65.7001 62.5935 65.5943 63.627L64.354 70.8707" stroke="black" stroke-width="0.9375" stroke-linecap="round"/>
<path d="M71.878 70.0056C72.3172 68.2801 72.9494 63.3869 71.1775 62.3893C70.8452 62.2149 69.9619 61.978 69.0872 62.4253" stroke="black" stroke-width="0.9375" stroke-linecap="round"/>
<path d="M74.4302 68.574C74.8228 67.0549 75.4685 64.6363 73.7718 64.5058L72.441 64.5057" stroke="black" stroke-width="0.9375" stroke-linecap="round"/>
<path d="M74.9424 66.0139C76.1809 65.7521 76.519 67.6487 76.519 68.574C76.6991 70.3121 76.519 75.3605 74.1184 82.0075C73.6908 83.5794 73.033 87.3022 73.8223 89.6174" stroke="black" stroke-width="0.9375" stroke-linecap="round"/>
<path d="M60.47 74.2262C60.6025 75.2342 61.3535 79.0478 62.6659 80.6928C63.9782 82.3378 63.3013 82.501 63.2923 83.6425L62.6659 94.7856" stroke="black" stroke-width="0.9375" stroke-linecap="round"/>
<path d="M64.4306 71.1524L47.6391 82.6071C47.3727 82.7889 47.0083 82.71 46.8411 82.4341C45.7406 80.618 44.461 78.5083 43.068 76.2137C35.3622 63.5205 24.1844 45.168 20.6239 39.5475C16.4166 32.906 33.3411 14.33 42.6876 5.5182C42.9044 5.31377 43.2366 5.32157 43.4524 5.52709L49.7157 11.4922" stroke="black" stroke-width="0.9375" stroke-linecap="round"/>
<path d="M43.068 76.2137L35.8349 84.7562C35.5977 85.0363 35.1672 85.0278 34.9539 84.7291C25.9546 72.129 7.60721 47.6329 1.31344 43.5868C1.04399 43.4136 0.944832 43.0629 1.10338 42.7845L20.5051 8.72275C20.581 8.58951 20.7074 8.49192 20.8575 8.46074C23.2715 7.95945 28.9063 8.26191 33.985 13.2481" stroke="black" stroke-width="0.9375" stroke-linecap="round"/>
<path d="M64.4306 71.0586L58.1687 71.4083C57.8884 71.424 57.6411 71.2381 57.586 70.9628C55.7768 61.9221 51.0012 42.8708 45.5691 35.2739C40.8246 28.6386 38.0997 25.4346 36.9784 24.2991C36.7535 24.0712 36.7278 23.7006 36.9421 23.4628C39.7789 20.315 44.3933 15.7516 49.7157 11.4922C55.7883 6.63235 62.7826 2.16832 69.1099 0.654308C69.3563 0.595372 69.6087 0.71393 69.7267 0.938063L74.7925 10.5667" stroke="black" stroke-width="0.9375" stroke-linecap="round"/>
<path d="M76.9645 68.6741C78.2614 67.591 83.0157 65.8533 91.8381 67.2787C92.2409 67.3437 92.5857 66.9827 92.4949 66.5849C90.9195 59.6816 89.0093 44.3175 92.6951 31.6577C96.3308 19.1701 97.0733 7.61984 96.9946 2.6595C96.9884 2.27273 96.5975 2.02084 96.2373 2.16199L74.7925 10.5666L61.2653 15.8682C61.0482 15.9533 60.906 16.1543 60.9084 16.3875C61.0188 26.8431 62.1065 50.3503 65.6437 63.8088" stroke="black" stroke-width="0.9375" stroke-linecap="round"/>
<path d="M73.3512 54.7461C77.341 53.3788 85.4125 50.4193 85.7808 49.5196" stroke="black" stroke-width="0.9375" stroke-linecap="round"/>
<path d="M73.3512 46.8071C73.2855 46.1897 75.916 44.7033 82.2295 42.9038" stroke="black" stroke-width="0.9375" stroke-linecap="round"/>
<path d="M72.299 39.3974C77.2752 37.8317 87.5696 34.343 88.9375 32.9139" stroke="black" stroke-width="0.9375" stroke-linecap="round"/>
<path d="M71.3125 31.5908L81.0457 27.489" stroke="black" stroke-width="0.9375" stroke-linecap="round"/>
<path d="M71.3125 23.1887C73.8554 21.5789 80.9405 17.7241 88.9375 15.1836" stroke="black" stroke-width="0.9375" stroke-linecap="round"/>
<path d="M56.8779 31.0026L61.2233 29.1574" stroke="black" stroke-width="0.9375" stroke-linecap="round"/>
<path d="M53.125 25.3353L60.8941 21.1836" stroke="black" stroke-width="0.9375" stroke-linecap="round"/>
<path d="M59.2481 36.9336L61.75 35.8133" stroke="black" stroke-width="0.9375" stroke-linecap="round"/>
<path d="M48.7298 59.8086L51.4375 56.7388" stroke="black" stroke-width="0.9375" stroke-linecap="round"/>
<path d="M44.8333 54.2569C45.7799 52.6458 48.0297 49.2147 51.0412 47.8561" stroke="black" stroke-width="0.9375" stroke-linecap="round"/>
<path d="M39.748 46.0273L46.0881 38.9734" stroke="black" stroke-width="0.9375" stroke-linecap="round"/>
<path d="M35.125 40.2144L42.7199 32.2461" stroke="black" stroke-width="0.9375" stroke-linecap="round"/>
<path d="M18.8125 47.1148L22.7358 43.3086" stroke="black" stroke-width="0.9375" stroke-linecap="round"/>
<path d="M22.7358 50.6586L25.7437 48.0336" stroke="black" stroke-width="0.9375" stroke-linecap="round"/>
<path d="M25.7437 55.5805L28.8824 53.1523" stroke="black" stroke-width="0.9375" stroke-linecap="round"/>
<path d="M29.7324 60.3055L32.1518 58.4023" stroke="black" stroke-width="0.9375" stroke-linecap="round"/>
<path d="M32.5441 64.3086L34.375 62.7336" stroke="black" stroke-width="0.9375" stroke-linecap="round"/>
</svg>
