<svg width="242" height="230" viewBox="0 0 242 230" fill="none" xmlns="http://www.w3.org/2000/svg">
<path d="M10.8438 105.469C12.19 105.469 13.2813 104.377 13.2813 103.031C13.2813 101.685 12.19 100.594 10.8438 100.594C9.49765 100.594 8.40634 101.685 8.40634 103.031C8.40634 104.377 9.49765 105.469 10.8438 105.469Z" stroke="black" stroke-width="0.9375"/>
<path d="M15.6202 103.279C20.5367 102.773 28.2512 103.372 29.163 107.175C30.0748 110.978 26.593 112.369 24.7382 112.589C17.6763 113.711 8.3125 113.183 8.3125 107.175" stroke="black" stroke-width="0.9375" stroke-linecap="round"/>
<path d="M13.8438 109.031C14.1545 109.031 14.4063 108.779 14.4063 108.469C14.4063 108.158 14.1545 107.906 13.8438 107.906C13.5332 107.906 13.2813 108.158 13.2813 108.469C13.2813 108.779 13.5332 109.031 13.8438 109.031Z" stroke="black" stroke-width="0.9375"/>
<path d="M19.2813 108.469C19.2813 108.742 19.0268 109.031 18.6251 109.031C18.2234 109.031 17.9688 108.742 17.9688 108.469C17.9688 108.196 18.2234 107.906 18.6251 107.906C19.0268 107.906 19.2813 108.196 19.2813 108.469Z" stroke="black" stroke-width="0.9375"/>
<path d="M23.4063 109.031C23.717 109.031 23.9688 108.779 23.9688 108.469C23.9688 108.158 23.717 107.906 23.4063 107.906C23.0957 107.906 22.8438 108.158 22.8438 108.469C22.8438 108.779 23.0957 109.031 23.4063 109.031Z" stroke="black" stroke-width="0.9375"/>
<path d="M195.812 36.8438C197.055 36.8438 198.062 35.8364 198.062 34.5938C198.062 33.3511 197.055 32.3438 195.812 32.3438C194.57 32.3438 193.562 33.3511 193.562 34.5938C193.562 35.8364 194.57 36.8438 195.812 36.8438Z" stroke="black" stroke-width="0.9375"/>
<path d="M200.233 32.625C201.882 32.625 206.593 32.625 208.809 32.625C210.604 32.625 211.468 33.0221 211.468 35.8016C211.468 38.5022 211.446 42.0004 211.468 43.4123C211.484 44.4049 210.99 45.5034 209.341 45.6623C207.692 45.8211 201.075 45.7284 197.973 45.6623C196.82 45.6623 194.781 45.009 194.781 42.3533V39.3752" stroke="black" stroke-width="0.9375" stroke-linecap="round"/>
<path d="M199.094 37.3125L203.219 40.125" stroke="black" stroke-width="0.9375" stroke-linecap="round"/>
<path d="M203.219 40.125L210.719 33.1875" stroke="black" stroke-width="0.9375" stroke-linecap="round"/>
<path d="M205.12 38.4375L207.169 40.5L209.219 42.5625" stroke="black" stroke-width="0.9375" stroke-linecap="round"/>
<path d="M197.594 42.5625L200.618 38.4375" stroke="black" stroke-width="0.9375" stroke-linecap="round"/>
<path d="M212.302 177.465C211.678 178.089 211.141 178.627 210.771 178.998C209.806 179.964 208.793 179.4 208.407 178.998L202.252 173.068C201.344 172.223 200.576 171.389 197.141 168.112C196.79 167.76 196.233 166.861 196.817 166.081C197.401 165.302 200.684 161.207 202.252 159.258C202.728 158.569 203.762 157.749 205.081 158.975C206.217 160.031 210.111 163.686 213.437 166.466" stroke="black" stroke-width="0.9375" stroke-linecap="round"/>
<path d="M202.188 159.469C202.381 163.026 203.686 168.751 210.438 170.906" stroke="black" stroke-width="0.9375" stroke-linecap="round"/>
<path d="M219.307 171.182C219.234 171.847 219.187 172.546 219.199 173.139M219.504 170.087C219.435 170.498 219.364 170.67 219.307 171.182L219.504 170.087ZM222.249 175.198C221.987 175.996 220.275 177.699 217.116 177.656C213.955 177.612 212.987 174.825 212.886 173.527C212.794 172.341 213.254 170.054 214.935 168.626C216.628 167.187 218.781 167.146 220.689 168.626C222.272 169.851 222.27 171.725 221.989 172.704C221.82 173.286 221.186 173.857 220.012 174.553C219.427 174.9 219.221 174.181 219.199 173.139L222.249 175.198ZM219.307 171.182C218.998 170.395 216.622 169.479 215.724 171.182C214.799 172.937 215.507 174.417 216.109 174.707C216.877 175.077 218.006 175.271 219.199 173.139L219.307 171.182Z" stroke="black" stroke-width="0.9375" stroke-linecap="round"/>
<path d="M52.9375 147.763C52.2634 145.161 50.025 140.361 46.4655 141.984C42.9058 143.606 44.9822 146.512 46.4655 147.763C47.4636 148.439 49.6093 149.162 50.2071 146.648C50.8048 144.133 48.2858 143.099 47.5778 144.214C47.2045 144.654 46.7828 145.755 48.0835 146.648" stroke="black" stroke-width="0.9375" stroke-linecap="round"/>
<path d="M68.6449 19.7356C68.6349 19.7053 68.6383 19.6878 68.6422 19.6767C68.6473 19.6622 68.6589 19.6448 68.6783 19.6305C68.6978 19.6163 68.7178 19.6104 68.7331 19.6098C68.7449 19.6094 68.7627 19.6113 68.7885 19.6299L72.6129 22.3752C72.9759 22.6357 73.4653 22.6329 73.8252 22.3682L77.6179 19.5794C77.6436 19.5605 77.6613 19.5583 77.6731 19.5586C77.6884 19.559 77.7085 19.5647 77.7281 19.5787C77.7477 19.5928 77.7595 19.61 77.7648 19.6244C77.7688 19.6355 77.7724 19.653 77.7628 19.6834L76.3337 24.1689C76.198 24.5946 76.3519 25.0592 76.7149 25.3197L80.5393 28.0649C80.5651 28.0835 80.5727 28.0997 80.576 28.111C80.5804 28.1257 80.5812 28.1466 80.5739 28.1696C80.5666 28.1926 80.5539 28.2091 80.5418 28.2185C80.5325 28.2258 80.517 28.2347 80.4851 28.2349L75.7775 28.2618C75.3308 28.2644 74.9365 28.5543 74.8008 28.98L73.3717 33.4655C73.3621 33.4959 73.349 33.508 73.3393 33.5147C73.3266 33.5235 73.3071 33.5307 73.283 33.5308C73.2588 33.5309 73.2392 33.524 73.2264 33.5154C73.2167 33.5088 73.2034 33.4968 73.1934 33.4665L71.7131 28.9977C71.5726 28.5736 71.175 28.2882 70.7282 28.2907L66.0206 28.3177C65.9888 28.3178 65.9731 28.3092 65.9638 28.302C65.9516 28.2927 65.9387 28.2763 65.9311 28.2534C65.9235 28.2305 65.9241 28.2097 65.9283 28.1949C65.9315 28.1836 65.9389 28.1673 65.9645 28.1484L69.7572 25.3595C70.1172 25.0949 70.2657 24.6285 70.1252 24.2044L68.6449 19.7356Z" stroke="black" stroke-width="0.9375"/>
<path d="M126.719 105.453V121.39" stroke="black" stroke-width="0.9375" stroke-linecap="round"/>
<path d="M138.719 107.328V122.515" stroke="black" stroke-width="0.9375" stroke-linecap="round"/>
<path d="M110.651 176.344C106.689 176.837 97.4129 178.657 95.381 182.357C94.7714 183.467 94.0642 186.169 96.1124 188.093C98.1608 190.017 101.904 189.511 103.519 189.018L112.938 185.225" stroke="black" stroke-width="0.9375" stroke-linecap="round"/>
<path d="M164.65 148.421C157.256 148.658 124.601 164.468 109.198 172.343C107.886 181.02 113.421 187.251 116.353 189.281C131.707 184.824 163.219 175.79 166.439 175.314C169.659 174.839 172.849 172.541 174.041 171.451C182.389 161.704 176.227 153.423 172.103 150.501C169.167 148.42 166.633 148.357 164.65 148.421Z" fill="black"/>
<path d="M95.3935 146.209C100.632 146.559 123.485 155.415 134.312 160.057L109.549 172.431C98.4671 175.681 91.659 174.611 89.5799 173.91C77.5785 168.128 82.2807 153.864 87.049 148.58C90.1222 145.964 93.5165 146.084 95.3935 146.209Z" fill="black"/>
<path d="M153.697 178.031C156.972 179.605 158.742 181.666 159.639 183.357C161.563 187.759 158.109 190.405 154.166 189.161C151.987 188.474 151.473 188.013 150.319 187.056C149.733 186.57 146.998 184.028 143.875 181.026" stroke="black" stroke-width="0.9375" stroke-linecap="round"/>
<path d="M90.8261 102.904L93.34 148.587C93.3947 149.581 94.2167 150.359 95.2122 150.359H165.344C166.379 150.359 167.219 149.52 167.219 148.484V101.822C167.219 100.777 166.364 99.9331 165.318 99.9472L92.673 100.926C91.6071 100.941 90.7676 101.84 90.8261 102.904Z" fill="black"/>
<rect x="92.9688" y="151.015" width="74.25" height="3.5625" rx="1.78125" fill="black"/>
<path d="M138.906 80.1403C145.437 80.0466 159.812 85.0153 165.531 100.672" stroke="black" stroke-width="0.9375" stroke-linecap="round"/>
<path d="M124.562 80.0466C109.656 82.9528 102.531 89.3278 96.9062 101.609" stroke="black" stroke-width="0.9375" stroke-linecap="round"/>
<path d="M174.438 94.875L178.094 88.7812" stroke="black" stroke-width="0.9375" stroke-linecap="round"/>
<path d="M178.094 96.5625L183.062 92.4375" stroke="black" stroke-width="0.9375" stroke-linecap="round"/>
<path d="M178.844 99.375C179.812 99.75 182.013 100.106 183.062 98.5312" stroke="black" stroke-width="0.9375" stroke-linecap="round"/>
<path d="M82.9375 93.7341L77.3125 87.9216" stroke="black" stroke-width="0.9375" stroke-linecap="round"/>
<path d="M88.6562 92.7966L85.2812 84.0778" stroke="black" stroke-width="0.9375" stroke-linecap="round"/>
<path d="M81.5312 97.0153L77.3125 95.4216" stroke="black" stroke-width="0.9375" stroke-linecap="round"/>
<path d="M169.281 111.188C172.75 116.625 176.688 123.094 169.281 135.265" stroke="black" stroke-width="0.9375" stroke-linecap="round"/>
<path d="M139 80.609C139.844 78.1715 139.075 76.5312 138.325 76.2188C133.825 80.3438 127 78.8125 124.469 76.3125C123.569 77.1375 124.094 79.5778 124.469 80.3278C129.344 85.7278 136.281 82.7028 139 80.609Z" fill="black"/>
<path d="M119.031 95.6091L120.537 93.2981C122.004 91.0457 124.86 90.1465 127.353 91.1518L130.942 92.5986C133.18 93.5013 135.745 92.8751 137.316 91.0425L141.438 86.2341" stroke="black" stroke-width="0.9375" stroke-linecap="round"/>
<path d="M89.6875 114.64C88.2813 117.953 86.6125 125.984 91.1875 131.609" stroke="black" stroke-width="0.9375" stroke-linecap="round"/>
<path d="M151.927 42.2851C149.864 49.6914 148.833 50.3476 145.833 53.6289C145.833 50.386 145.276 44.943 145.276 42.6765C135.453 42.6765 127.163 38.6666 124.246 36.6616C124.35 43.4611 117.976 47.9069 117.976 47.9069C117.976 47.9069 118.89 50.6528 119.413 56.7984C119.831 61.715 118.629 60.7648 117.976 59.6751C116.095 53.6079 113.012 55.2293 111.706 56.7984C95.677 30.7539 120.327 25.7215 125.029 26.2009C128.582 23.1673 133.537 20.79 137.021 20.4414C149.583 19.1838 155.271 30.2761 151.927 42.2851Z" fill="black"/>
<path d="M118.196 64.3107C119.883 74.6129 131.21 82.0209 139.383 73.6754C147.557 65.3299 145.921 50.0538 145.048 42.9254" stroke="black" stroke-width="0.9375" stroke-linecap="round"/>
<path d="M111.521 56.1601C110.489 58.6913 111.457 64.3004 118.196 64.3004" stroke="black" stroke-width="0.9375" stroke-linecap="round"/>
<path d="M114.493 57.5504C114.344 58.0921 114.463 59.3754 116.133 60.1754" stroke="black" stroke-width="0.9375" stroke-linecap="round"/>
<path d="M144.821 62.9879C147.02 62.071 148.571 58.6754 147.974 53.2379" stroke="black" stroke-width="0.9375" stroke-linecap="round"/>
<path d="M132.446 69.1754C134.602 69.7379 134.465 68.19 136.102 66.8317" stroke="black" stroke-width="0.9375" stroke-linecap="round"/>
<circle cx="138.882" cy="56.0784" r="1.40625" fill="black"/>
<circle cx="126.507" cy="56.2659" r="1.40625" fill="black"/>
<path d="M123.446 53.0504C123.742 52.1791 125.018 50.5672 127.758 51.09" stroke="black" stroke-width="0.9375" stroke-linecap="round"/>
<path d="M136.571 51.3629C137.224 50.7969 139.001 50.0046 140.883 51.3629" stroke="black" stroke-width="0.9375" stroke-linecap="round"/>
<path d="M132.034 55.3004C131.816 57.1518 131.667 60.9062 132.821 61.1129" stroke="black" stroke-width="0.9375" stroke-linecap="round"/>
<path d="M186.062 140.344C211.094 147.281 256.056 155.25 235.656 131.625C229.219 125.281 219.719 117.844 204.438 111.281" stroke="black" stroke-width="0.9375" stroke-linecap="round"/>
<path d="M213.156 91.8727C228.719 81.9039 253.787 61.3102 229.562 58.6852C205.338 56.0602 183.219 65.1539 175.188 70.0289" stroke="black" stroke-width="0.9375" stroke-linecap="round"/>
<path d="M152.875 77.305C163.187 55.0862 179.875 9.03624 164.125 2.58624C144.437 -5.47626 118.937 17.7737 98.125 73.2737" stroke="black" stroke-width="0.9375" stroke-linecap="round"/>
<path d="M75.1899 58.165C52.1274 45.54 5.04619 26.1212 1.22119 49.4462C-2.60381 72.7712 44.1274 92.2274 67.9712 99.0399" stroke="black" stroke-width="0.9375" stroke-linecap="round"/>
<path d="M74.0933 111.281C40.4371 128.438 -1.73365 152.165 21.6251 164.531C31.1875 169.594 55.6563 166.5 66.9063 161.906" stroke="black" stroke-width="0.9375" stroke-linecap="round"/>
</svg>
