<svg width="120" height="120" viewBox="0 0 120 120" fill="none" xmlns="http://www.w3.org/2000/svg">
<g clip-path="url(#clip0_28_5554)">
<rect width="120" height="120" rx="60" fill="#CAEEA3"/>
<path d="M52.6849 60.875C52.728 59.0682 52.2583 54.8193 50.0352 52.2774C47.2564 49.1 47.0625 47.1686 47.0625 41.25" stroke="black" stroke-width="0.625" stroke-linecap="round"/>
<path d="M53.8125 43C52.7669 42.8196 50.9893 41.6171 52.2441 38.25" stroke="black" stroke-width="0.625" stroke-linecap="round"/>
<path d="M68.7791 37.7714C68.7396 38.3865 68.341 39.6414 67.0625 39.7398" stroke="black" stroke-width="0.625" stroke-linecap="round"/>
<path d="M67.0625 43C69.4302 41.6262 73.2303 38.2512 69.4894 35.7415C68.9764 35.3724 67.7728 35.151 67.0625 37.2178" stroke="black" stroke-width="0.625" stroke-linecap="round"/>
<path d="M61.4375 34C60.9674 33.8113 59.7593 33.5472 58.6875 34" stroke="black" stroke-width="0.625" stroke-linecap="round"/>
<path d="M50.3125 34.625C49.7569 34.4363 48.3292 34.1722 47.0625 34.625" stroke="black" stroke-width="0.625" stroke-linecap="round"/>
<path d="M65.0518 20.0363C79.0486 21.4938 74.7718 32.1194 70.8838 37.25C70.0897 35.4909 68.5262 35.4281 67.8437 35.6166C67.1985 25.7155 61.0397 27.0516 58.041 28.9573C51.7871 28.706 50.2236 31.198 50.2236 32.4754C47.5128 30.7631 45.2173 32.7734 45.0311 33.2132C38.0824 12.7075 55.5386 15.9527 65.0518 20.0363Z" fill="black"/>
<circle cx="4.75" cy="4.75" r="4.4375" transform="matrix(-1 0 0 1 64.3125 31.625)" stroke="black" stroke-width="0.625"/>
<ellipse cx="1.0625" cy="1.3125" rx="1.0625" ry="1.3125" transform="matrix(-1 0 0 1 60.8125 35.875)" fill="black"/>
<path d="M43.75 36.375C43.75 38.8219 45.7609 40.8125 48.25 40.8125C50.7391 40.8125 52.75 38.8219 52.75 36.375C52.75 33.9281 50.7391 31.9375 48.25 31.9375C45.7609 31.9375 43.75 33.9281 43.75 36.375Z" stroke="black" stroke-width="0.625"/>
<circle cx="1.3125" cy="1.3125" r="1.3125" transform="matrix(-1 0 0 1 49.4375 35.875)" fill="black"/>
<path d="M64.0625 35.75L67.3125 36.5" stroke="black" stroke-width="0.625" stroke-linecap="round"/>
<path d="M48.375 50.5036C47.4792 50.462 42.875 50.8125 41 52.7499" stroke="black" stroke-width="0.625" stroke-linecap="round"/>
<path d="M29.4376 36.25C29.9325 36.7874 30.4425 37.0638 30.9364 37.163C31.1494 37.2058 31.2679 37.4674 31.0957 37.5999C29.9491 38.4823 28.5507 37.7358 27.9376 37.1875" stroke="black" stroke-width="0.625" stroke-linecap="round"/>
<path d="M33.875 35.8684C33.4191 36.4269 32.5245 37.1494 31.5 37.2035C30.839 37.2385 30.1238 36.9952 29.4375 36.25" stroke="black" stroke-width="0.625" stroke-linecap="round"/>
<path d="M35.7501 34.0995C35.3704 34.811 34.6813 35.6706 33.8751 35.8684C33.1327 36.0505 32.291 35.6716 31.5001 34.0995" stroke="black" stroke-width="0.625" stroke-linecap="round"/>
<path d="M36.9217 34.0995C38.0934 36.5115 36.9217 36.9375 35.3125 38.1875C34.5378 38.7893 33.9038 38.4089 33.7646 37.7052C33.7392 37.5764 33.5188 37.5001 33.4326 37.5992C32.3927 38.7934 30.8336 39.3007 30.0575 39.2725C29.877 39.266 29.6603 39.3885 29.6398 39.5679C29.6134 39.7995 29.5923 40.0269 29.5762 40.25" stroke="black" stroke-width="0.625" stroke-linecap="round"/>
<path d="M33.5625 32.0625C34.1148 32.75 34.995 33.6776 35.75 34.0995C36.2299 34.3676 36.6593 34.4315 36.9217 34.0995C37.0097 33.9882 37.0789 33.8325 37.125 33.625C37.525 31.825 35.625 28.0953 34.25 28.75C32.5 29.5833 28.275 31.9125 25.375 34.5625C23.9351 35.8783 22.9081 38.7485 22.2084 41.8125" stroke="black" stroke-width="0.625" stroke-linecap="round"/>
<path d="M39.3125 64C24.8625 61.65 21.0833 53.8958 21 50.3125C21.1256 48.2294 21.4974 44.9324 22.2041 41.8311C22.2069 41.8187 22.2105 41.8069 22.2153 41.7951C22.887 40.1234 25.2543 37.5118 29.4499 40.1688C29.5267 40.2174 29.5718 40.3073 29.5661 40.398C29.3105 44.4583 30.7017 47.0822 31.5 47.9375C33 49.5 37.85 52.8375 45.25 53.6875" stroke="black" stroke-width="0.625" stroke-linecap="round"/>
<path d="M60.4375 112.125C50 105.625 44.7917 84.2917 43.8125 78.125C55.25 87.625 65.3958 79.7083 68.25 77.1875C69.75 80.7375 80.3918 95.1875 80.125 100.062C79.575 110.112 73.9167 107.271 70.8125 104.687C68.875 103.25 63.9583 96.1667 62 93C60.9375 96.6458 65.5625 104 65.9375 107.687C65.9375 113.237 62.2708 112.958 60.4375 112.125Z" fill="black"/>
<path d="M39.8978 61.5106C40.4592 66.8133 40.7716 70.6216 43.5471 77.3999C43.5572 77.4244 43.5707 77.447 43.588 77.4672C47.1451 81.6039 56.6286 86.9624 68.0818 76.913C68.1096 76.8886 68.1325 76.8577 68.147 76.8236C70.5813 71.1039 69.9502 62.5101 67.1392 55.5276C67.0733 55.3639 66.8635 55.32 66.7345 55.4405C64.3259 57.6914 59.3639 61.1669 55.8125 59C53.3454 57.4946 52.8334 56.625 51.875 55.625" stroke="black" stroke-width="0.625" stroke-linecap="round"/>
<path d="M93.125 93.75C89.8333 93.5417 82.7375 92.525 78.6875 87.125" stroke="black" stroke-width="0.625" stroke-linecap="round"/>
<path d="M80.75 102.5C82.6042 102 87.675 99.55 93.125 93.75" stroke="black" stroke-width="0.625" stroke-linecap="round"/>
<path d="M93.125 93.75C88 94.3333 78.45 94.2125 74.5 86.3125" stroke="black" stroke-width="0.625" stroke-linecap="round"/>
<path d="M31.25 101.25C28.1041 93.1458 24.425 74.6625 37.125 63.8125" stroke="black" stroke-width="0.625" stroke-linecap="round"/>
<path d="M32.4374 62.3125C27.1041 66.9583 19.5999 81.1 31.2499 101.25" stroke="black" stroke-width="0.625" stroke-linecap="round"/>
<path d="M31.2499 101.25C33.3958 97.8542 40.1874 94.125 48.4999 99.9375" stroke="black" stroke-width="0.625" stroke-linecap="round"/>
<path d="M60.8832 113.366C61.2755 115.288 62.5739 119.793 65.9987 119.854C68.1711 119.784 67.4332 117.5 66.0733 113.673" stroke="black" stroke-width="0.625" stroke-linecap="round"/>
<path d="M81.125 82.6251C80.7083 82.1459 80.1875 80.9126 81.4375 79.8126C81.7254 79.7319 82.2298 79.729 82.75 80.0128C83.1709 80.2423 83.6021 80.6595 83.9375 81.3751" stroke="black" stroke-width="0.625" stroke-linecap="round"/>
<path d="M82.75 80.0128C82.9867 79.3782 83.6181 78.5284 84.5625 78.9581C84.8647 79.0956 85.1989 79.3641 85.5625 79.8126" stroke="black" stroke-width="0.625" stroke-linecap="round"/>
<path d="M81.4375 79.8126C81.125 79.5 80.2375 78.8982 81.9375 77.8982C84.0625 76.6482 85.125 76.0625 85.875 77.8982" stroke="black" stroke-width="0.625" stroke-linecap="round"/>
<path d="M84.5625 78.9581C84.8043 78.5128 85.2791 77.969 85.875 77.8983C86.3571 77.841 86.9186 78.0934 87.5 78.9581C88.8 80.8917 87.625 82.4167 86.875 82.9376L83.9375 85.3751C81.375 86.9375 74.1125 86.0751 70.8125 84.3751" stroke="black" stroke-width="0.625" stroke-linecap="round"/>
<path d="M55.125 48.6875C56.2708 49.2292 58.6875 49.125 60 47" stroke="black" stroke-width="0.625" stroke-linecap="round"/>
<path d="M66.625 53.4375C75.337 58.2569 72.0971 69.5104 71.217 72.826C71.1968 72.902 71.2021 72.9764 71.2316 73.0493C72.6817 76.6413 77.398 80.1909 79.848 81.1913C80.0291 81.2652 80.1324 81.4577 80.0895 81.6485C79.7863 82.9938 79.4686 85.3283 80.1699 86.0625" stroke="black" stroke-width="0.625" stroke-linecap="round"/>
<path d="M64.875 50C64.5417 50.8333 64.075 53.0375 64.875 55.1875" stroke="black" stroke-width="0.625" stroke-linecap="round"/>
<path d="M73.6875 107.875C74.1667 110.542 76.875 115 78.5 114C79.2672 113.528 79.9125 111.762 79.0625 108.312" stroke="black" stroke-width="0.625" stroke-linecap="round"/>
<path d="M82.5803 121.679C84.4943 120.784 89.1534 119.053 92.4775 119.281C92.9488 119.3 93.6605 119.498 92.7372 120.137C91.8138 120.777 91.3521 121.108 91.2367 121.194C90.7558 121.593 90.2845 122.438 92.2466 122.621C94.6993 122.849 101.624 120.366 115.33 122.193" stroke="black" stroke-width="0.625" stroke-linecap="round"/>
<path d="M81.1989 64.6256C82.0247 62.71 83.0135 57.6261 80.3627 52.6155" stroke="black" stroke-width="0.625" stroke-linecap="round"/>
<path d="M84.0163 55.261C84.2582 54.479 84.4977 52.409 83.5201 50.3856" stroke="black" stroke-width="0.625" stroke-linecap="round"/>
<path d="M35.5952 119.75V116.25" stroke="black" stroke-width="0.625" stroke-linecap="round"/>
<path d="M32.4446 118.195L34.3665 119.75" stroke="black" stroke-width="0.625" stroke-linecap="round"/>
<path d="M36.8777 119.75L38.3196 117.472" stroke="black" stroke-width="0.625" stroke-linecap="round"/>
<path d="M105.382 103.875V99.75" stroke="black" stroke-width="0.625" stroke-linecap="round"/>
<path d="M101.695 102.042L103.944 103.875" stroke="black" stroke-width="0.625" stroke-linecap="round"/>
<path d="M106.882 103.875L108.57 101.191" stroke="black" stroke-width="0.625" stroke-linecap="round"/>
</g>
<defs>
<clipPath id="clip0_28_5554">
<rect width="120" height="120" rx="60" fill="white"/>
</clipPath>
</defs>
</svg>
